<mxfile host="drawio-plugin" modified="2024-01-17T02:10:20.887Z" agent="5.0 (Windows NT 6.2; Win64; x64) AppleWebKit/537.36 (KHTML, like Gecko) Chrome/104.0.5112.102 Safari/537.36" etag="_xpP2VmuXgoPfinCz1qo" version="20.5.3" type="embed"><diagram id="QGH4WI4-VxnZYRvOwH_x" name="Page-1"><mxGraphModel dx="1475" dy="505" grid="1" gridSize="10" guides="1" tooltips="1" connect="1" arrows="1" fold="1" page="1" pageScale="1" pageWidth="850" pageHeight="1100" math="0" shadow="0"><root><mxCell id="0"/><mxCell id="1" parent="0"/><mxCell id="XXeN8-TDfPjeMoHy85Z7-3" style="edgeStyle=orthogonalEdgeStyle;rounded=0;orthogonalLoop=1;jettySize=auto;html=1;entryX=0.5;entryY=0;entryDx=0;entryDy=0;" parent="1" source="XXeN8-TDfPjeMoHy85Z7-1" target="XXeN8-TDfPjeMoHy85Z7-2" edge="1"><mxGeometry relative="1" as="geometry"/></mxCell><mxCell id="XXeN8-TDfPjeMoHy85Z7-1" value="&lt;b&gt;Start&lt;/b&gt;" style="ellipse;whiteSpace=wrap;html=1;" parent="1" vertex="1"><mxGeometry x="-96" y="50" width="120" height="80" as="geometry"/></mxCell><mxCell id="XXeN8-TDfPjeMoHy85Z7-6" style="edgeStyle=orthogonalEdgeStyle;rounded=0;orthogonalLoop=1;jettySize=auto;html=1;exitX=1;exitY=0.5;exitDx=0;exitDy=0;" parent="1" source="XXeN8-TDfPjeMoHy85Z7-2" target="XXeN8-TDfPjeMoHy85Z7-5" edge="1"><mxGeometry relative="1" as="geometry"/></mxCell><mxCell id="XXeN8-TDfPjeMoHy85Z7-7" value="FALSE" style="edgeLabel;html=1;align=center;verticalAlign=middle;resizable=0;points=[];" parent="XXeN8-TDfPjeMoHy85Z7-6" vertex="1" connectable="0"><mxGeometry x="-0.3948" y="2" relative="1" as="geometry"><mxPoint x="13" y="2" as="offset"/></mxGeometry></mxCell><mxCell id="XXeN8-TDfPjeMoHy85Z7-10" value="TRUE" style="edgeStyle=orthogonalEdgeStyle;rounded=0;orthogonalLoop=1;jettySize=auto;html=1;exitX=0.5;exitY=1;exitDx=0;exitDy=0;entryX=0.5;entryY=0;entryDx=0;entryDy=0;" parent="1" source="XXeN8-TDfPjeMoHy85Z7-2" target="XXeN8-TDfPjeMoHy85Z7-8" edge="1"><mxGeometry relative="1" as="geometry"/></mxCell><mxCell id="XXeN8-TDfPjeMoHy85Z7-2" value="Can Read BQ ID?" style="rhombus;whiteSpace=wrap;html=1;" parent="1" vertex="1"><mxGeometry x="-136" y="190" width="200" height="80" as="geometry"/></mxCell><mxCell id="9" style="edgeStyle=orthogonalEdgeStyle;rounded=0;orthogonalLoop=1;jettySize=auto;html=1;entryX=0.5;entryY=0;entryDx=0;entryDy=0;" edge="1" parent="1" source="XXeN8-TDfPjeMoHy85Z7-5" target="8"><mxGeometry relative="1" as="geometry"/></mxCell><mxCell id="XXeN8-TDfPjeMoHy85Z7-5" value="&lt;b&gt;Initialization ERROR&lt;/b&gt;" style="ellipse;whiteSpace=wrap;html=1;" parent="1" vertex="1"><mxGeometry x="439" y="190" width="120" height="80" as="geometry"/></mxCell><mxCell id="XXeN8-TDfPjeMoHy85Z7-13" value="TRUE" style="edgeStyle=orthogonalEdgeStyle;rounded=0;orthogonalLoop=1;jettySize=auto;html=1;entryX=0.5;entryY=0;entryDx=0;entryDy=0;" parent="1" source="XXeN8-TDfPjeMoHy85Z7-8" target="XXeN8-TDfPjeMoHy85Z7-12" edge="1"><mxGeometry relative="1" as="geometry"/></mxCell><mxCell id="XXeN8-TDfPjeMoHy85Z7-21" style="edgeStyle=orthogonalEdgeStyle;rounded=0;orthogonalLoop=1;jettySize=auto;html=1;entryX=1;entryY=0.5;entryDx=0;entryDy=0;" parent="1" source="XXeN8-TDfPjeMoHy85Z7-8" target="XXeN8-TDfPjeMoHy85Z7-20" edge="1"><mxGeometry relative="1" as="geometry"/></mxCell><mxCell id="XXeN8-TDfPjeMoHy85Z7-22" value="FALSE" style="edgeLabel;html=1;align=center;verticalAlign=middle;resizable=0;points=[];" parent="XXeN8-TDfPjeMoHy85Z7-21" vertex="1" connectable="0"><mxGeometry x="-0.0035" y="-1" relative="1" as="geometry"><mxPoint as="offset"/></mxGeometry></mxCell><mxCell id="XXeN8-TDfPjeMoHy85Z7-8" value="Has BQ Settings?" style="rhombus;whiteSpace=wrap;html=1;" parent="1" vertex="1"><mxGeometry x="-136" y="360" width="200" height="80" as="geometry"/></mxCell><mxCell id="XXeN8-TDfPjeMoHy85Z7-19" style="edgeStyle=orthogonalEdgeStyle;rounded=0;orthogonalLoop=1;jettySize=auto;html=1;entryX=0.5;entryY=0;entryDx=0;entryDy=0;" parent="1" source="XXeN8-TDfPjeMoHy85Z7-12" target="XXeN8-TDfPjeMoHy85Z7-15" edge="1"><mxGeometry relative="1" as="geometry"/></mxCell><mxCell id="XXeN8-TDfPjeMoHy85Z7-12" value="&lt;b&gt;Transfer Settings&lt;/b&gt;" style="ellipse;whiteSpace=wrap;html=1;" parent="1" vertex="1"><mxGeometry x="-96" y="500" width="120" height="80" as="geometry"/></mxCell><mxCell id="XXeN8-TDfPjeMoHy85Z7-16" style="edgeStyle=orthogonalEdgeStyle;rounded=0;orthogonalLoop=1;jettySize=auto;html=1;entryX=0;entryY=0.5;entryDx=0;entryDy=0;" parent="1" source="XXeN8-TDfPjeMoHy85Z7-15" target="XXeN8-TDfPjeMoHy85Z7-5" edge="1"><mxGeometry relative="1" as="geometry"><Array as="points"><mxPoint x="319" y="670"/><mxPoint x="319" y="230"/></Array></mxGeometry></mxCell><mxCell id="XXeN8-TDfPjeMoHy85Z7-18" value="FALSE" style="edgeLabel;html=1;align=center;verticalAlign=middle;resizable=0;points=[];" parent="XXeN8-TDfPjeMoHy85Z7-16" vertex="1" connectable="0"><mxGeometry x="-0.8462" y="-1" relative="1" as="geometry"><mxPoint as="offset"/></mxGeometry></mxCell><mxCell id="XXeN8-TDfPjeMoHy85Z7-33" style="edgeStyle=orthogonalEdgeStyle;rounded=0;orthogonalLoop=1;jettySize=auto;html=1;entryX=0.5;entryY=0;entryDx=0;entryDy=0;" parent="1" source="XXeN8-TDfPjeMoHy85Z7-15" target="XXeN8-TDfPjeMoHy85Z7-32" edge="1"><mxGeometry relative="1" as="geometry"/></mxCell><mxCell id="XXeN8-TDfPjeMoHy85Z7-34" value="TRUE" style="edgeLabel;html=1;align=center;verticalAlign=middle;resizable=0;points=[];" parent="XXeN8-TDfPjeMoHy85Z7-33" vertex="1" connectable="0"><mxGeometry x="-0.02" y="-1" relative="1" as="geometry"><mxPoint as="offset"/></mxGeometry></mxCell><mxCell id="XXeN8-TDfPjeMoHy85Z7-15" value="Transfer Successful?" style="rhombus;whiteSpace=wrap;html=1;" parent="1" vertex="1"><mxGeometry x="-136" y="630" width="200" height="80" as="geometry"/></mxCell><mxCell id="XXeN8-TDfPjeMoHy85Z7-24" style="edgeStyle=orthogonalEdgeStyle;rounded=0;orthogonalLoop=1;jettySize=auto;html=1;exitX=0.5;exitY=1;exitDx=0;exitDy=0;entryX=0.5;entryY=0;entryDx=0;entryDy=0;" parent="1" source="XXeN8-TDfPjeMoHy85Z7-20" target="XXeN8-TDfPjeMoHy85Z7-23" edge="1"><mxGeometry relative="1" as="geometry"/></mxCell><mxCell id="XXeN8-TDfPjeMoHy85Z7-20" value="&lt;b&gt;Factory Init&lt;/b&gt;" style="ellipse;whiteSpace=wrap;html=1;" parent="1" vertex="1"><mxGeometry x="-356" y="360" width="120" height="80" as="geometry"/></mxCell><mxCell id="XXeN8-TDfPjeMoHy85Z7-29" style="edgeStyle=orthogonalEdgeStyle;rounded=0;orthogonalLoop=1;jettySize=auto;html=1;entryX=0;entryY=0.5;entryDx=0;entryDy=0;exitX=0.5;exitY=1;exitDx=0;exitDy=0;" parent="1" source="XXeN8-TDfPjeMoHy85Z7-23" target="XXeN8-TDfPjeMoHy85Z7-1" edge="1"><mxGeometry relative="1" as="geometry"><Array as="points"><mxPoint x="-296" y="640"/><mxPoint x="-526" y="640"/><mxPoint x="-526" y="90"/></Array></mxGeometry></mxCell><mxCell id="XXeN8-TDfPjeMoHy85Z7-30" value="TRUE" style="edgeLabel;html=1;align=center;verticalAlign=middle;resizable=0;points=[];" parent="XXeN8-TDfPjeMoHy85Z7-29" vertex="1" connectable="0"><mxGeometry x="-0.8855" y="1" relative="1" as="geometry"><mxPoint as="offset"/></mxGeometry></mxCell><mxCell id="XXeN8-TDfPjeMoHy85Z7-31" value="FALSE" style="edgeStyle=orthogonalEdgeStyle;rounded=0;orthogonalLoop=1;jettySize=auto;html=1;entryX=0;entryY=0.5;entryDx=0;entryDy=0;exitX=0;exitY=0.5;exitDx=0;exitDy=0;" parent="1" source="XXeN8-TDfPjeMoHy85Z7-23" target="XXeN8-TDfPjeMoHy85Z7-20" edge="1"><mxGeometry relative="1" as="geometry"><Array as="points"><mxPoint x="-441" y="540"/><mxPoint x="-441" y="400"/></Array><mxPoint x="-421" y="420" as="targetPoint"/></mxGeometry></mxCell><mxCell id="XXeN8-TDfPjeMoHy85Z7-23" value="Received Settings?" style="rhombus;whiteSpace=wrap;html=1;" parent="1" vertex="1"><mxGeometry x="-396" y="500" width="200" height="80" as="geometry"/></mxCell><mxCell id="XXeN8-TDfPjeMoHy85Z7-47" style="edgeStyle=orthogonalEdgeStyle;rounded=0;orthogonalLoop=1;jettySize=auto;html=1;entryX=0.5;entryY=0;entryDx=0;entryDy=0;" parent="1" source="XXeN8-TDfPjeMoHy85Z7-32" target="XXeN8-TDfPjeMoHy85Z7-46" edge="1"><mxGeometry relative="1" as="geometry"/></mxCell><mxCell id="XXeN8-TDfPjeMoHy85Z7-32" value="&lt;b&gt;System Ready&lt;/b&gt;" style="ellipse;whiteSpace=wrap;html=1;" parent="1" vertex="1"><mxGeometry x="-96" y="770" width="120" height="80" as="geometry"/></mxCell><mxCell id="XXeN8-TDfPjeMoHy85Z7-39" style="edgeStyle=orthogonalEdgeStyle;rounded=0;orthogonalLoop=1;jettySize=auto;html=1;entryX=0;entryY=0.5;entryDx=0;entryDy=0;" parent="1" source="XXeN8-TDfPjeMoHy85Z7-35" target="XXeN8-TDfPjeMoHy85Z7-38" edge="1"><mxGeometry relative="1" as="geometry"/></mxCell><mxCell id="XXeN8-TDfPjeMoHy85Z7-40" value="FALSE" style="edgeLabel;html=1;align=center;verticalAlign=middle;resizable=0;points=[];" parent="XXeN8-TDfPjeMoHy85Z7-39" vertex="1" connectable="0"><mxGeometry x="-0.1173" relative="1" as="geometry"><mxPoint as="offset"/></mxGeometry></mxCell><mxCell id="XXeN8-TDfPjeMoHy85Z7-42" style="edgeStyle=orthogonalEdgeStyle;rounded=0;orthogonalLoop=1;jettySize=auto;html=1;entryX=0.5;entryY=0;entryDx=0;entryDy=0;" parent="1" source="XXeN8-TDfPjeMoHy85Z7-35" target="XXeN8-TDfPjeMoHy85Z7-41" edge="1"><mxGeometry relative="1" as="geometry"/></mxCell><mxCell id="XXeN8-TDfPjeMoHy85Z7-43" value="TRUE" style="edgeLabel;html=1;align=center;verticalAlign=middle;resizable=0;points=[];" parent="XXeN8-TDfPjeMoHy85Z7-42" vertex="1" connectable="0"><mxGeometry x="-0.0951" relative="1" as="geometry"><mxPoint as="offset"/></mxGeometry></mxCell><mxCell id="XXeN8-TDfPjeMoHy85Z7-35" value="System Healthy?" style="rhombus;whiteSpace=wrap;html=1;" parent="1" vertex="1"><mxGeometry x="-136" y="1010" width="200" height="80" as="geometry"/></mxCell><mxCell id="15" style="edgeStyle=orthogonalEdgeStyle;rounded=0;orthogonalLoop=1;jettySize=auto;html=1;entryX=0.5;entryY=0;entryDx=0;entryDy=0;" edge="1" parent="1" source="XXeN8-TDfPjeMoHy85Z7-38" target="14"><mxGeometry relative="1" as="geometry"/></mxCell><mxCell id="XXeN8-TDfPjeMoHy85Z7-38" value="&lt;b&gt;Unsafe Conditions ERROR&lt;/b&gt;" style="ellipse;whiteSpace=wrap;html=1;" parent="1" vertex="1"><mxGeometry x="439" y="1010" width="120" height="80" as="geometry"/></mxCell><mxCell id="XXeN8-TDfPjeMoHy85Z7-44" style="edgeStyle=orthogonalEdgeStyle;rounded=0;orthogonalLoop=1;jettySize=auto;html=1;entryX=0;entryY=0.5;entryDx=0;entryDy=0;" parent="1" source="XXeN8-TDfPjeMoHy85Z7-41" target="XXeN8-TDfPjeMoHy85Z7-32" edge="1"><mxGeometry relative="1" as="geometry"><Array as="points"><mxPoint x="-221" y="1170"/><mxPoint x="-221" y="810"/></Array></mxGeometry></mxCell><mxCell id="XXeN8-TDfPjeMoHy85Z7-45" value="FALSE" style="edgeLabel;html=1;align=center;verticalAlign=middle;resizable=0;points=[];" parent="XXeN8-TDfPjeMoHy85Z7-44" vertex="1" connectable="0"><mxGeometry x="-0.8507" y="-1" relative="1" as="geometry"><mxPoint x="1" as="offset"/></mxGeometry></mxCell><mxCell id="XXeN8-TDfPjeMoHy85Z7-60" style="edgeStyle=orthogonalEdgeStyle;rounded=0;orthogonalLoop=1;jettySize=auto;html=1;entryX=0.5;entryY=0;entryDx=0;entryDy=0;" parent="1" source="XXeN8-TDfPjeMoHy85Z7-41" target="XXeN8-TDfPjeMoHy85Z7-59" edge="1"><mxGeometry relative="1" as="geometry"/></mxCell><mxCell id="XXeN8-TDfPjeMoHy85Z7-61" value="TRUE" style="edgeLabel;html=1;align=center;verticalAlign=middle;resizable=0;points=[];" parent="XXeN8-TDfPjeMoHy85Z7-60" vertex="1" connectable="0"><mxGeometry x="-0.0281" relative="1" as="geometry"><mxPoint as="offset"/></mxGeometry></mxCell><mxCell id="XXeN8-TDfPjeMoHy85Z7-41" value="Interlock Detected?" style="rhombus;whiteSpace=wrap;html=1;" parent="1" vertex="1"><mxGeometry x="-136" y="1130" width="200" height="80" as="geometry"/></mxCell><mxCell id="XXeN8-TDfPjeMoHy85Z7-48" style="edgeStyle=orthogonalEdgeStyle;rounded=0;orthogonalLoop=1;jettySize=auto;html=1;entryX=0.5;entryY=0;entryDx=0;entryDy=0;" parent="1" source="XXeN8-TDfPjeMoHy85Z7-46" target="XXeN8-TDfPjeMoHy85Z7-35" edge="1"><mxGeometry relative="1" as="geometry"/></mxCell><mxCell id="XXeN8-TDfPjeMoHy85Z7-49" value="FALSE" style="edgeLabel;html=1;align=center;verticalAlign=middle;resizable=0;points=[];" parent="XXeN8-TDfPjeMoHy85Z7-48" vertex="1" connectable="0"><mxGeometry x="0.288" y="1" relative="1" as="geometry"><mxPoint x="-1" y="-6" as="offset"/></mxGeometry></mxCell><mxCell id="XXeN8-TDfPjeMoHy85Z7-51" style="edgeStyle=orthogonalEdgeStyle;rounded=0;orthogonalLoop=1;jettySize=auto;html=1;entryX=0;entryY=0.5;entryDx=0;entryDy=0;" parent="1" source="XXeN8-TDfPjeMoHy85Z7-46" target="XXeN8-TDfPjeMoHy85Z7-50" edge="1"><mxGeometry relative="1" as="geometry"/></mxCell><mxCell id="XXeN8-TDfPjeMoHy85Z7-52" value="TRUE" style="edgeLabel;html=1;align=center;verticalAlign=middle;resizable=0;points=[];" parent="XXeN8-TDfPjeMoHy85Z7-51" vertex="1" connectable="0"><mxGeometry x="-0.1517" y="-1" relative="1" as="geometry"><mxPoint as="offset"/></mxGeometry></mxCell><mxCell id="XXeN8-TDfPjeMoHy85Z7-46" value="Should enter deep sleep?" style="rhombus;whiteSpace=wrap;html=1;" parent="1" vertex="1"><mxGeometry x="-136" y="890" width="200" height="80" as="geometry"/></mxCell><mxCell id="XXeN8-TDfPjeMoHy85Z7-54" style="edgeStyle=orthogonalEdgeStyle;rounded=0;orthogonalLoop=1;jettySize=auto;html=1;entryX=0.5;entryY=1;entryDx=0;entryDy=0;" parent="1" source="XXeN8-TDfPjeMoHy85Z7-50" target="XXeN8-TDfPjeMoHy85Z7-53" edge="1"><mxGeometry relative="1" as="geometry"/></mxCell><mxCell id="XXeN8-TDfPjeMoHy85Z7-50" value="&lt;b&gt;Deep Sleep&lt;/b&gt;" style="ellipse;whiteSpace=wrap;html=1;" parent="1" vertex="1"><mxGeometry x="164" y="890" width="120" height="80" as="geometry"/></mxCell><mxCell id="XXeN8-TDfPjeMoHy85Z7-55" style="edgeStyle=orthogonalEdgeStyle;rounded=0;orthogonalLoop=1;jettySize=auto;html=1;entryX=1;entryY=0.5;entryDx=0;entryDy=0;" parent="1" source="XXeN8-TDfPjeMoHy85Z7-53" target="XXeN8-TDfPjeMoHy85Z7-32" edge="1"><mxGeometry relative="1" as="geometry"/></mxCell><mxCell id="XXeN8-TDfPjeMoHy85Z7-58" value="TRUE" style="edgeLabel;html=1;align=center;verticalAlign=middle;resizable=0;points=[];" parent="XXeN8-TDfPjeMoHy85Z7-55" vertex="1" connectable="0"><mxGeometry x="0.0133" y="-1" relative="1" as="geometry"><mxPoint as="offset"/></mxGeometry></mxCell><mxCell id="XXeN8-TDfPjeMoHy85Z7-56" style="edgeStyle=orthogonalEdgeStyle;rounded=0;orthogonalLoop=1;jettySize=auto;html=1;entryX=1;entryY=0.5;entryDx=0;entryDy=0;" parent="1" source="XXeN8-TDfPjeMoHy85Z7-53" target="XXeN8-TDfPjeMoHy85Z7-50" edge="1"><mxGeometry relative="1" as="geometry"><Array as="points"><mxPoint x="344" y="810"/><mxPoint x="344" y="930"/></Array></mxGeometry></mxCell><mxCell id="XXeN8-TDfPjeMoHy85Z7-57" value="FALSE" style="edgeLabel;html=1;align=center;verticalAlign=middle;resizable=0;points=[];" parent="XXeN8-TDfPjeMoHy85Z7-56" vertex="1" connectable="0"><mxGeometry x="-0.2108" y="1" relative="1" as="geometry"><mxPoint as="offset"/></mxGeometry></mxCell><mxCell id="XXeN8-TDfPjeMoHy85Z7-53" value="Wakeup Signal Received?" style="rhombus;whiteSpace=wrap;html=1;" parent="1" vertex="1"><mxGeometry x="124" y="770" width="200" height="80" as="geometry"/></mxCell><mxCell id="XXeN8-TDfPjeMoHy85Z7-63" style="edgeStyle=orthogonalEdgeStyle;rounded=0;orthogonalLoop=1;jettySize=auto;html=1;entryX=1;entryY=0.5;entryDx=0;entryDy=0;exitX=0.5;exitY=1;exitDx=0;exitDy=0;" parent="1" source="XXeN8-TDfPjeMoHy85Z7-59" target="XXeN8-TDfPjeMoHy85Z7-62" edge="1"><mxGeometry relative="1" as="geometry"><Array as="points"><mxPoint x="-36" y="1420"/></Array></mxGeometry></mxCell><mxCell id="XXeN8-TDfPjeMoHy85Z7-64" value="BIKE" style="edgeLabel;html=1;align=center;verticalAlign=middle;resizable=0;points=[];" parent="XXeN8-TDfPjeMoHy85Z7-63" vertex="1" connectable="0"><mxGeometry x="-0.075" relative="1" as="geometry"><mxPoint x="45" y="-50" as="offset"/></mxGeometry></mxCell><mxCell id="XXeN8-TDfPjeMoHy85Z7-83" style="edgeStyle=orthogonalEdgeStyle;rounded=0;orthogonalLoop=1;jettySize=auto;html=1;entryX=0.5;entryY=0;entryDx=0;entryDy=0;" parent="1" source="XXeN8-TDfPjeMoHy85Z7-59" target="XXeN8-TDfPjeMoHy85Z7-82" edge="1"><mxGeometry relative="1" as="geometry"><Array as="points"><mxPoint x="221" y="1290"/></Array></mxGeometry></mxCell><mxCell id="2" value="CHARGER" style="edgeLabel;html=1;align=center;verticalAlign=middle;resizable=0;points=[];" vertex="1" connectable="0" parent="XXeN8-TDfPjeMoHy85Z7-83"><mxGeometry x="-0.4643" y="-3" relative="1" as="geometry"><mxPoint as="offset"/></mxGeometry></mxCell><mxCell id="4" style="edgeStyle=orthogonalEdgeStyle;rounded=0;orthogonalLoop=1;jettySize=auto;html=1;entryX=0;entryY=0.5;entryDx=0;entryDy=0;" edge="1" parent="1" source="XXeN8-TDfPjeMoHy85Z7-59" target="XXeN8-TDfPjeMoHy85Z7-32"><mxGeometry relative="1" as="geometry"><Array as="points"><mxPoint x="-221" y="1290"/><mxPoint x="-221" y="810"/></Array></mxGeometry></mxCell><mxCell id="7" value="UNKNOWN" style="edgeLabel;html=1;align=center;verticalAlign=middle;resizable=0;points=[];" vertex="1" connectable="0" parent="4"><mxGeometry x="-0.8992" y="-1" relative="1" as="geometry"><mxPoint x="-10" y="1" as="offset"/></mxGeometry></mxCell><mxCell id="XXeN8-TDfPjeMoHy85Z7-59" value="Where is the pack?" style="rhombus;whiteSpace=wrap;html=1;" parent="1" vertex="1"><mxGeometry x="-136" y="1250" width="200" height="80" as="geometry"/></mxCell><mxCell id="XXeN8-TDfPjeMoHy85Z7-67" style="edgeStyle=orthogonalEdgeStyle;rounded=0;orthogonalLoop=1;jettySize=auto;html=1;entryX=0.5;entryY=0;entryDx=0;entryDy=0;" parent="1" source="XXeN8-TDfPjeMoHy85Z7-62" target="XXeN8-TDfPjeMoHy85Z7-66" edge="1"><mxGeometry relative="1" as="geometry"/></mxCell><mxCell id="XXeN8-TDfPjeMoHy85Z7-62" value="&lt;b&gt;Power Delivery&lt;/b&gt;" style="ellipse;whiteSpace=wrap;html=1;" parent="1" vertex="1"><mxGeometry x="-358.5" y="1380" width="120" height="80" as="geometry"/></mxCell><mxCell id="XXeN8-TDfPjeMoHy85Z7-68" style="edgeStyle=orthogonalEdgeStyle;rounded=0;orthogonalLoop=1;jettySize=auto;html=1;entryX=0;entryY=0.5;entryDx=0;entryDy=0;" parent="1" source="XXeN8-TDfPjeMoHy85Z7-66" target="XXeN8-TDfPjeMoHy85Z7-38" edge="1"><mxGeometry relative="1" as="geometry"><mxPoint x="409" y="1050" as="targetPoint"/><Array as="points"><mxPoint x="19" y="1570"/><mxPoint x="19" y="1350"/><mxPoint x="339" y="1350"/><mxPoint x="339" y="1050"/></Array></mxGeometry></mxCell><mxCell id="XXeN8-TDfPjeMoHy85Z7-69" value="FALSE" style="edgeLabel;html=1;align=center;verticalAlign=middle;resizable=0;points=[];" parent="XXeN8-TDfPjeMoHy85Z7-68" vertex="1" connectable="0"><mxGeometry x="-0.8774" y="-1" relative="1" as="geometry"><mxPoint as="offset"/></mxGeometry></mxCell><mxCell id="XXeN8-TDfPjeMoHy85Z7-73" style="edgeStyle=orthogonalEdgeStyle;rounded=0;orthogonalLoop=1;jettySize=auto;html=1;entryX=0.5;entryY=0;entryDx=0;entryDy=0;" parent="1" source="XXeN8-TDfPjeMoHy85Z7-66" target="XXeN8-TDfPjeMoHy85Z7-70" edge="1"><mxGeometry relative="1" as="geometry"/></mxCell><mxCell id="XXeN8-TDfPjeMoHy85Z7-74" value="TRUE" style="edgeLabel;html=1;align=center;verticalAlign=middle;resizable=0;points=[];" parent="XXeN8-TDfPjeMoHy85Z7-73" vertex="1" connectable="0"><mxGeometry x="-0.2258" y="-1" relative="1" as="geometry"><mxPoint as="offset"/></mxGeometry></mxCell><mxCell id="XXeN8-TDfPjeMoHy85Z7-66" value="System Healthy?" style="rhombus;whiteSpace=wrap;html=1;" parent="1" vertex="1"><mxGeometry x="-398.5" y="1530" width="200" height="80" as="geometry"/></mxCell><mxCell id="XXeN8-TDfPjeMoHy85Z7-75" style="edgeStyle=orthogonalEdgeStyle;rounded=0;orthogonalLoop=1;jettySize=auto;html=1;entryX=0;entryY=0.5;entryDx=0;entryDy=0;exitX=0.5;exitY=1;exitDx=0;exitDy=0;" parent="1" source="XXeN8-TDfPjeMoHy85Z7-70" target="XXeN8-TDfPjeMoHy85Z7-32" edge="1"><mxGeometry relative="1" as="geometry"><Array as="points"><mxPoint x="-298" y="1880"/><mxPoint x="-561" y="1880"/><mxPoint x="-561" y="810"/></Array></mxGeometry></mxCell><mxCell id="XXeN8-TDfPjeMoHy85Z7-76" value="FALSE" style="edgeLabel;html=1;align=center;verticalAlign=middle;resizable=0;points=[];" parent="XXeN8-TDfPjeMoHy85Z7-75" vertex="1" connectable="0"><mxGeometry x="-0.9632" relative="1" as="geometry"><mxPoint x="-9" as="offset"/></mxGeometry></mxCell><mxCell id="P-u0DcNputZFXxXExEn1-1" style="edgeStyle=orthogonalEdgeStyle;rounded=0;orthogonalLoop=1;jettySize=auto;html=1;exitX=0;exitY=0.5;exitDx=0;exitDy=0;entryX=0;entryY=0.5;entryDx=0;entryDy=0;" parent="1" source="XXeN8-TDfPjeMoHy85Z7-70" target="XXeN8-TDfPjeMoHy85Z7-62" edge="1"><mxGeometry relative="1" as="geometry"><Array as="points"><mxPoint x="-448.5" y="1780"/><mxPoint x="-448.5" y="1420"/></Array><mxPoint x="-448.5" y="1370" as="targetPoint"/></mxGeometry></mxCell><mxCell id="P-u0DcNputZFXxXExEn1-2" value="TRUE" style="edgeLabel;html=1;align=center;verticalAlign=middle;resizable=0;points=[];" parent="P-u0DcNputZFXxXExEn1-1" vertex="1" connectable="0"><mxGeometry x="-0.8706" y="-1" relative="1" as="geometry"><mxPoint as="offset"/></mxGeometry></mxCell><mxCell id="XXeN8-TDfPjeMoHy85Z7-70" value="Interlock Detected?" style="rhombus;whiteSpace=wrap;html=1;" parent="1" vertex="1"><mxGeometry x="-398.5" y="1740" width="200" height="80" as="geometry"/></mxCell><mxCell id="XXeN8-TDfPjeMoHy85Z7-88" style="edgeStyle=orthogonalEdgeStyle;rounded=0;orthogonalLoop=1;jettySize=auto;html=1;entryX=0.5;entryY=0;entryDx=0;entryDy=0;" parent="1" source="XXeN8-TDfPjeMoHy85Z7-82" target="XXeN8-TDfPjeMoHy85Z7-85" edge="1"><mxGeometry relative="1" as="geometry"/></mxCell><mxCell id="XXeN8-TDfPjeMoHy85Z7-82" value="&lt;b&gt;Charging&lt;/b&gt;" style="ellipse;whiteSpace=wrap;html=1;" parent="1" vertex="1"><mxGeometry x="161" y="1380" width="120" height="80" as="geometry"/></mxCell><mxCell id="XXeN8-TDfPjeMoHy85Z7-90" style="edgeStyle=orthogonalEdgeStyle;rounded=0;orthogonalLoop=1;jettySize=auto;html=1;entryX=0.5;entryY=0;entryDx=0;entryDy=0;" parent="1" source="XXeN8-TDfPjeMoHy85Z7-85" target="XXeN8-TDfPjeMoHy85Z7-89" edge="1"><mxGeometry relative="1" as="geometry"/></mxCell><mxCell id="XXeN8-TDfPjeMoHy85Z7-91" value="TRUE" style="edgeLabel;html=1;align=center;verticalAlign=middle;resizable=0;points=[];" parent="XXeN8-TDfPjeMoHy85Z7-90" vertex="1" connectable="0"><mxGeometry x="0.4002" relative="1" as="geometry"><mxPoint x="-16" as="offset"/></mxGeometry></mxCell><mxCell id="XXeN8-TDfPjeMoHy85Z7-92" style="edgeStyle=orthogonalEdgeStyle;rounded=0;orthogonalLoop=1;jettySize=auto;html=1;entryX=0;entryY=0.5;entryDx=0;entryDy=0;exitX=1;exitY=0.5;exitDx=0;exitDy=0;" parent="1" source="XXeN8-TDfPjeMoHy85Z7-85" target="XXeN8-TDfPjeMoHy85Z7-38" edge="1"><mxGeometry relative="1" as="geometry"><Array as="points"><mxPoint x="339" y="1570"/><mxPoint x="339" y="1050"/></Array></mxGeometry></mxCell><mxCell id="XXeN8-TDfPjeMoHy85Z7-93" value="FALSE" style="edgeLabel;html=1;align=center;verticalAlign=middle;resizable=0;points=[];" parent="XXeN8-TDfPjeMoHy85Z7-92" vertex="1" connectable="0"><mxGeometry x="-0.9228" y="1" relative="1" as="geometry"><mxPoint y="-24" as="offset"/></mxGeometry></mxCell><mxCell id="XXeN8-TDfPjeMoHy85Z7-85" value="System Healthy?" style="rhombus;whiteSpace=wrap;html=1;" parent="1" vertex="1"><mxGeometry x="121" y="1530" width="200" height="80" as="geometry"/></mxCell><mxCell id="XXeN8-TDfPjeMoHy85Z7-94" style="edgeStyle=orthogonalEdgeStyle;rounded=0;orthogonalLoop=1;jettySize=auto;html=1;entryX=0;entryY=0.5;entryDx=0;entryDy=0;exitX=0.5;exitY=1;exitDx=0;exitDy=0;" parent="1" source="XXeN8-TDfPjeMoHy85Z7-89" target="XXeN8-TDfPjeMoHy85Z7-32" edge="1"><mxGeometry relative="1" as="geometry"><Array as="points"><mxPoint x="227" y="1820"/><mxPoint x="227" y="1880"/><mxPoint x="-561" y="1880"/><mxPoint x="-561" y="810"/></Array></mxGeometry></mxCell><mxCell id="XXeN8-TDfPjeMoHy85Z7-95" value="FALSE" style="edgeLabel;html=1;align=center;verticalAlign=middle;resizable=0;points=[];" parent="XXeN8-TDfPjeMoHy85Z7-94" vertex="1" connectable="0"><mxGeometry x="-0.9805" relative="1" as="geometry"><mxPoint y="2" as="offset"/></mxGeometry></mxCell><mxCell id="XXeN8-TDfPjeMoHy85Z7-96" style="edgeStyle=orthogonalEdgeStyle;rounded=0;orthogonalLoop=1;jettySize=auto;html=1;entryX=0;entryY=0.5;entryDx=0;entryDy=0;" parent="1" source="XXeN8-TDfPjeMoHy85Z7-89" target="XXeN8-TDfPjeMoHy85Z7-82" edge="1"><mxGeometry relative="1" as="geometry"><Array as="points"><mxPoint x="81" y="1780"/><mxPoint x="81" y="1420"/></Array><mxPoint x="991" y="1420" as="targetPoint"/></mxGeometry></mxCell><mxCell id="XXeN8-TDfPjeMoHy85Z7-97" value="TRUE" style="edgeLabel;html=1;align=center;verticalAlign=middle;resizable=0;points=[];" parent="XXeN8-TDfPjeMoHy85Z7-96" vertex="1" connectable="0"><mxGeometry x="-0.8852" y="-1" relative="1" as="geometry"><mxPoint as="offset"/></mxGeometry></mxCell><mxCell id="XXeN8-TDfPjeMoHy85Z7-89" value="Interlock Detected?" style="rhombus;whiteSpace=wrap;html=1;" parent="1" vertex="1"><mxGeometry x="121" y="1740" width="200" height="80" as="geometry"/></mxCell><mxCell id="10" style="edgeStyle=orthogonalEdgeStyle;rounded=0;orthogonalLoop=1;jettySize=auto;html=1;entryX=0;entryY=0.5;entryDx=0;entryDy=0;exitX=0;exitY=0.5;exitDx=0;exitDy=0;" edge="1" parent="1" source="8" target="XXeN8-TDfPjeMoHy85Z7-5"><mxGeometry relative="1" as="geometry"><Array as="points"><mxPoint x="319" y="400"/><mxPoint x="319" y="230"/></Array></mxGeometry></mxCell><mxCell id="11" value="FALSE" style="edgeLabel;html=1;align=center;verticalAlign=middle;resizable=0;points=[];" vertex="1" connectable="0" parent="10"><mxGeometry x="-0.6898" y="-1" relative="1" as="geometry"><mxPoint x="21" y="1" as="offset"/></mxGeometry></mxCell><mxCell id="12" style="edgeStyle=orthogonalEdgeStyle;rounded=0;orthogonalLoop=1;jettySize=auto;html=1;entryX=1;entryY=0.5;entryDx=0;entryDy=0;" edge="1" parent="1" source="8" target="XXeN8-TDfPjeMoHy85Z7-1"><mxGeometry relative="1" as="geometry"><Array as="points"><mxPoint x="659" y="400"/><mxPoint x="659" y="90"/></Array></mxGeometry></mxCell><mxCell id="13" value="TRUE" style="edgeLabel;html=1;align=center;verticalAlign=middle;resizable=0;points=[];" vertex="1" connectable="0" parent="12"><mxGeometry x="-0.9148" y="3" relative="1" as="geometry"><mxPoint x="-12" y="3" as="offset"/></mxGeometry></mxCell><mxCell id="8" value="Reset sequence received?" style="rhombus;whiteSpace=wrap;html=1;" vertex="1" parent="1"><mxGeometry x="399" y="360" width="200" height="80" as="geometry"/></mxCell><mxCell id="16" style="edgeStyle=orthogonalEdgeStyle;rounded=0;orthogonalLoop=1;jettySize=auto;html=1;entryX=0;entryY=0.5;entryDx=0;entryDy=0;exitX=0;exitY=0.5;exitDx=0;exitDy=0;" edge="1" parent="1" source="14" target="XXeN8-TDfPjeMoHy85Z7-38"><mxGeometry relative="1" as="geometry"><Array as="points"><mxPoint x="339" y="1170"/><mxPoint x="339" y="1050"/></Array></mxGeometry></mxCell><mxCell id="17" value="FALSE" style="edgeLabel;html=1;align=center;verticalAlign=middle;resizable=0;points=[];" vertex="1" connectable="0" parent="16"><mxGeometry x="-0.9308" y="-1" relative="1" as="geometry"><mxPoint x="-20" y="1" as="offset"/></mxGeometry></mxCell><mxCell id="20" style="edgeStyle=orthogonalEdgeStyle;rounded=0;orthogonalLoop=1;jettySize=auto;html=1;entryX=1;entryY=0.5;entryDx=0;entryDy=0;" edge="1" parent="1" source="14" target="XXeN8-TDfPjeMoHy85Z7-1"><mxGeometry relative="1" as="geometry"><Array as="points"><mxPoint x="660" y="1170"/><mxPoint x="660" y="90"/></Array></mxGeometry></mxCell><mxCell id="21" value="TRUE" style="edgeLabel;html=1;align=center;verticalAlign=middle;resizable=0;points=[];" vertex="1" connectable="0" parent="20"><mxGeometry x="-0.9842" y="3" relative="1" as="geometry"><mxPoint x="17" y="3" as="offset"/></mxGeometry></mxCell><mxCell id="14" value="Reset sequence received?" style="rhombus;whiteSpace=wrap;html=1;" vertex="1" parent="1"><mxGeometry x="399" y="1130" width="200" height="80" as="geometry"/></mxCell></root></mxGraphModel></diagram></mxfile>